<svg width="28" height="28" fill="none" xmlns="http://www.w3.org/2000/svg"><g filter="url(#a)"><rect x="4" width="20" height="20" rx="10" fill="#7db54f"/><path d="M10.1 11.8h1.4V6.9l.1-.6-.4.5-1 .8-.4-.5L12 5.4h.3v6.4h1.4v.7H10v-.7ZM18 7l-.2 1-.5 1.2a10.9 10.9 0 0 1-1.5 2.1l-.5.4H18v.7h-4v-.3A33.1 33.1 0 0 0 16 10a9.7 9.7 0 0 0 1-1.9l.1-.9c0-.3 0-.6-.2-.8-.2-.2-.5-.3-.9-.3l-.7.1-.7.4-.3-.6.8-.5a3 3 0 0 1 1-.1l.8.1a1.5 1.5 0 0 1 1 1V7Z" fill="#fff"/></g><defs><filter id="a" x="0" y="0" width="28" height="28" filterUnits="userSpaceOnUse" color-interpolation-filters="sRGB"><feFlood flood-opacity="0" result="BackgroundImageFix"/><feColorMatrix in="SourceAlpha" values="0 0 0 0 0 0 0 0 0 0 0 0 0 0 0 0 0 0 127 0" result="hardAlpha"/><feOffset dy="4"/><feGaussianBlur stdDeviation="2"/><feComposite in2="hardAlpha" operator="out"/><feColorMatrix values="0 0 0 0 0 0 0 0 0 0 0 0 0 0 0 0 0 0 0.25 0"/><feBlend in2="BackgroundImageFix" result="effect1_dropShadow_24196_813"/><feBlend in="SourceGraphic" in2="effect1_dropShadow_24196_813" result="shape"/></filter></defs></svg>
